<svg width="125" height="43" viewBox="0 0 125 43" fill="none" xmlns="http://www.w3.org/2000/svg">
<g clip-path="url(#clip0)">
<path d="M40.7162 31.6147C35.7627 17.8261 26.5312 17.6161 17.7126 17.3012C16.5492 11.9467 17.4123 6.17232 20.8648 1.55279C20.2268 16.6712 42.4799 13.7315 40.7162 31.6147ZM18.6132 20.4858C26.7564 21.1508 35.2373 21.7107 40.1157 32.7696C29.6084 34.7644 21.7279 28.57 18.6132 20.4858ZM0.750681 11.8767C4.31568 18.3161 9.90709 19.6109 15.9113 20.2409C18.2754 29.7599 27.3943 36.8292 38.7648 33.9595C20.7147 44.4584 -1.01305 29.7599 0.750681 11.8767ZM21.165 0.642883C16.5492 5.82235 14.8606 11.7717 15.3859 17.2312C9.64441 16.9512 4.24062 16.0763 0.525523 10.7918C-4.24031 35.5693 24.9176 49.4979 41.2415 33.1895C46.983 10.4069 22.1407 15.2014 21.165 0.642883Z" fill="#4A4D99"/>
<path d="M50.623 31.4747H52.0115L54.0379 26.8902L54.4883 25.8053L57.1901 19.9259L59.7419 25.8053L60.1922 26.8902L62.1436 31.4747H63.6447L57.2652 17.3712L50.623 31.4747Z" fill="#4A4D99"/>
<path d="M76.3658 17.3712H74.602L67.7723 23.9855V17.3712H66.3838V31.4747H67.7723V24.3004L74.7146 31.4747H76.741L69.2358 24.1255L76.3658 17.3712Z" fill="#4A4D99"/>
<path d="M87.2864 29.305L81.4698 16.7762L79.4434 31.4747H80.8318L81.9951 20.6958L87.2864 31.9997L92.6901 20.6958L93.8159 31.4747H95.2419L93.2906 16.7762L87.2864 29.305Z" fill="#4A4D99"/>
<path d="M111.791 19.191C111.041 18.4911 110.177 17.9661 109.202 17.6162C108.226 17.2662 107.175 17.0562 106.05 17.0562C104.924 17.0562 103.911 17.2312 102.935 17.5812C101.959 17.9311 101.096 18.4561 100.346 19.156C99.5575 19.8559 98.9947 20.6608 98.5819 21.5707C98.1691 22.4807 97.9814 23.4256 97.9814 24.4405C97.9814 25.4204 98.1691 26.3653 98.5819 27.2752C98.9947 28.1501 99.5575 28.955 100.346 29.6899C101.134 30.3898 101.997 30.9498 102.972 31.2997C103.948 31.6847 104.961 31.8597 106.05 31.8597C107.138 31.8597 108.151 31.6847 109.164 31.2997C110.14 30.9148 111.003 30.3898 111.791 29.6899C112.542 28.99 113.142 28.1851 113.555 27.3102C113.968 26.4003 114.155 25.4553 114.155 24.4755C114.155 23.4606 113.968 22.5157 113.555 21.6057C113.142 20.6958 112.579 19.8909 111.791 19.191ZM112.204 26.8552C111.866 27.6251 111.378 28.2901 110.778 28.885C110.14 29.4799 109.427 29.9349 108.601 30.2499C107.813 30.5648 106.95 30.7048 106.05 30.7048C105.149 30.7048 104.286 30.5648 103.498 30.2499C102.71 29.9349 101.997 29.4799 101.359 28.885C100.721 28.2901 100.233 27.5901 99.8953 26.8552C99.5576 26.0853 99.4074 25.3154 99.4074 24.4405C99.4074 23.6005 99.5576 22.7956 99.8953 22.0257C100.233 21.2908 100.721 20.5908 101.359 19.9959C101.997 19.401 102.71 18.946 103.498 18.6311C104.286 18.3161 105.149 18.1761 106.012 18.1761C106.913 18.1761 107.776 18.3161 108.564 18.6311C109.352 18.946 110.065 19.401 110.703 19.9959C111.341 20.5908 111.829 21.2908 112.166 22.0257C112.504 22.7956 112.654 23.5655 112.654 24.4405C112.692 25.2804 112.542 26.0853 112.204 26.8552Z" fill="#4A4D99"/>
<path d="M124.325 25.4554C123.874 24.8604 123.049 24.2305 121.735 23.5655C121.585 23.4956 121.323 23.3556 121.022 23.2156C119.259 22.3757 118.396 21.4308 118.396 20.4509C118.396 19.7509 118.621 19.191 119.071 18.806C119.521 18.3861 120.084 18.2111 120.835 18.2111C121.398 18.2111 121.848 18.3161 122.261 18.5261C122.674 18.736 122.974 19.051 123.199 19.436L124.25 18.841C123.912 18.2461 123.424 17.7911 122.899 17.5112C122.336 17.1962 121.66 17.0562 120.91 17.0562C119.747 17.0562 118.808 17.3712 118.095 18.0011C117.382 18.6311 117.007 19.436 117.007 20.4509C117.007 21.2558 117.27 21.9557 117.758 22.5157C118.245 23.0756 119.259 23.7405 120.797 24.5104C121.998 25.1054 122.749 25.6303 123.124 26.0853C123.499 26.5402 123.649 27.1002 123.649 27.7651C123.649 28.71 123.387 29.4099 122.861 29.9349C122.336 30.4598 121.585 30.7398 120.61 30.7398C119.859 30.7398 119.221 30.5648 118.658 30.1799C118.133 29.7949 117.72 29.27 117.532 28.57L116.369 29.165C116.782 30.0749 117.307 30.7748 118.02 31.2298C118.733 31.6847 119.559 31.9297 120.572 31.9297C121.923 31.9297 123.011 31.5447 123.799 30.8098C124.587 30.0749 125 29.06 125 27.8001C125 26.7852 124.775 26.0153 124.325 25.4554Z" fill="#4A4D99"/>
</g>
<defs>
<clipPath id="clip0">
<rect width="125" height="41.7857" fill="white" transform="translate(0 0.642883)"/>
</clipPath>
</defs>
</svg>
